:SAMPLES-PER-SECOND 30
:FULLY-SPECIFIED
:DEGREES
429
root  -39.9707 38.4041 -29.3952 -28.8887 -88.1949 57.8543
RightUpLeg  -60.339 -17.8854 10.4427
RightLeg  28.9101 0.100836 -0.178221
RightFoot  3.59908 0.955216 -7.08488
RightToes  0.00048216 0.542163 -0.142577
Spine  67.7604 -4.5417 7.78901
Spine1  4.68771 2.08251 -7.03628
HEad  -39.2754 -5.46884 -5.22
LeftShoulder1  8.09232 -28.7202 -18.3077
LeftArm  -69.6513 -74.2653 20.6952
LeftForeArm  16.1964 0.704376 -1.77416
LeftHand  -0.25398 0.0180481 5.50724
RightShoulder  3.48853 15.3539 11.3414
RightArm  -61.7487 63.057 -17.0721
RightForeArm  -10.5178 -5.98656 2.09967
RightHand  -4.2292 10.9718 -29.8372
LeftUpLeg  -56.8016 14.0752 -11.1455
LeftLeg  31.2516 0.328039 0.565242
LeftFoot  -1.88675 -0.464362 5.74817
LeftToes  1.06246e-005 4.65856e-005 -8.18501e-006
430
root  -39.5524 38.559 -29.1047 -29.695 -88.2087 55.9332
RightUpLeg  -57.1647 -18.6936 9.42086
RightLeg  27.1772 0.363629 -0.030601
RightFoot  5.03744 0.995056 -6.66368
RightToes  0.00048216 0.542163 -0.142577
Spine  66.3152 -4.73098 7.82278
Spine1  5.9036 1.8387 -6.83025
HEad  -37.744 -4.50527 -6.24538
LeftShoulder1  8.50685 -27.7388 -20.5814
LeftArm  -54.1373 -73.3152 5.11517
LeftForeArm  18.6329 1.24019 -2.55887
LeftHand  -0.25398 0.0180481 5.50724
RightShoulder  3.88643 15.9408 12.9739
RightArm  -50.8008 61.3303 -7.24907
RightForeArm  -4.32939 -6.21149 2.78277
RightHand  -4.55196 11.8367 -30.4262
LeftUpLeg  -53.9475 14.8659 -11.4421
LeftLeg  30.003 -0.163448 0.244598
LeftFoot  -1.08366 -0.590383 6.64339
LeftToes  1.06246e-005 4.65856e-005 -8.18501e-006
431
root  -39.1614 38.7155 -28.7781 -32.0883 -88.29 55.4631
RightUpLeg  -53.608 -19.1425 7.99345
RightLeg  25.353 0.498882 0.0304395
RightFoot  6.28854 0.999343 -6.15459
RightToes  0.00048216 0.542163 -0.142577
Spine  64.7918 -4.78066 7.99966
Spine1  6.87157 1.86202 -6.64872
HEad  -35.6127 -3.74821 -7.1161
LeftShoulder1  9.25987 -27.4091 -23.4595
LeftArm  -38.8856 -69.8292 -10.1864
LeftForeArm  20.6108 1.73035 -3.29517
LeftHand  -0.25398 0.0180481 5.50724
RightShoulder  4.47425 16.5918 15.4782
RightArm  -38.71 57.6749 1.52581
RightForeArm  -0.324443 -6.43167 4.29818
RightHand  -4.20406 11.0374 -29.5107
LeftUpLeg  -50.7782 15.6136 -11.5796
LeftLeg  28.631 -0.440171 0.0829123
LeftFoot  -0.401673 -0.723931 7.57375
LeftToes  1.06246e-005 4.65856e-005 -8.18501e-006
432
root  -38.801 38.8694 -28.423 -42.907 -88.4078 63.445
RightUpLeg  -49.9254 -19.4273 6.39737
RightLeg  23.3472 0.55236 0.030779
RightFoot  7.36341 1.00289 -5.77177
RightToes  0.00048216 0.542163 -0.142577
Spine  63.3248 -4.58431 7.91499
Spine1  7.35616 1.89641 -6.28601
HEad  -32.9434 -2.83652 -8.01544
LeftShoulder1  10.1982 -27.0508 -27.0535
LeftArm  -28.1428 -64.0193 -20.2225
LeftForeArm  20.9116 1.93512 -4.19097
LeftHand  -0.25398 0.0180481 5.50724
RightShoulder  5.06849 17.0714 18.0313
RightArm  -27.871 52.2612 9.44432
RightForeArm  -0.295788 -6.19197 6.00719
RightHand  -3.71881 9.68685 -28.5009
LeftUpLeg  -47.4827 16.4518 -11.7907
LeftLeg  27.1308 -0.581831 0.0170203
LeftFoot  0.25288 -0.863369 8.47201
LeftToes  1.06246e-005 4.65856e-005 -8.18501e-006
433
root  -38.4571 39.0257 -28.0525 -62.9965 -88.5159 80.7363
RightUpLeg  -46.1257 -19.8554 4.93964
RightLeg  20.9734 0.923829 0.193703
RightFoot  8.73347 0.993281 -5.26938
RightToes  0.00048216 0.542163 -0.142577
Spine  62.3418 -4.52029 7.20618
Spine1  7.0732 1.45681 -6.18381
HEad  -30.1384 -0.916278 -9.06786
LeftShoulder1  10.775 -25.6533 -30.7181
LeftArm  -21.313 -56.6519 -25.0356
LeftForeArm  19.7251 1.75586 -5.24488
LeftHand  -0.25398 0.0180481 5.50724
RightShoulder  5.8089 17.6584 21.0653
RightArm  -19.8544 45.842 16.0478
RightForeArm  -2.94145 -4.92399 7.41063
RightHand  -3.28807 8.42999 -27.5313
LeftUpLeg  -44.1497 17.5617 -12.045
LeftLeg  25.5196 -0.80112 -0.0780281
LeftFoot  0.955592 -1.00245 9.23039
LeftToes  1.06246e-005 4.65856e-005 -8.18501e-006
434
root  -38.1223 39.1991 -27.6824 -91.4679 -88.5469 106.493
RightUpLeg  -41.8907 -19.6653 3.00315
RightLeg  18.0594 1.09232 0.786718
RightFoot  10.2857 0.833087 -3.99517
RightToes  0.00048216 0.542163 -0.142577
Spine  60.3368 -4.1376 6.60328
Spine1  8.5997 1.46428 -6.03304
HEad  -28.2956 0.333789 -10.2209
LeftShoulder1  11.1895 -24.7896 -33.341
LeftArm  -18.0096 -49.1287 -27.1339
LeftForeArm  18.9549 1.49393 -5.63026
LeftHand  -0.25398 0.0180481 5.50724
RightShoulder  6.4348 17.2803 24.7816
RightArm  -14.8658 39.3601 19.4588
RightForeArm  -6.25243 -2.54419 8.51131
RightHand  -2.80375 7.07262 -26.0808
LeftUpLeg  -40.7609 18.9349 -12.1408
LeftLeg  23.6325 -1.11905 -0.200404
LeftFoot  1.75276 -1.13318 9.75603
LeftToes  1.06246e-005 4.65856e-005 -8.18501e-006
435
root  -37.8032 39.3904 -27.3212 -123.758 -88.3397 136.354
RightUpLeg  -37.1839 -17.521 -0.249521
RightLeg  14.7326 -1.18639 1.69235
RightFoot  10.8114 0.403558 -1.66537
RightToes  0.00048216 0.542163 -0.142577
Spine  58.0608 -3.66925 6.05887
Spine1  10.1871 1.55643 -5.83209
HEad  -26.7456 1.48122 -11.4383
LeftShoulder1  11.5123 -23.8944 -35.803
LeftArm  -16.1149 -41.2706 -27.8589
LeftForeArm  18.8457 0.993029 -5.77131
LeftHand  -0.25398 0.0180481 5.50724
RightShoulder  6.89868 16.5962 28.2677
RightArm  -11.0641 32.7489 21.5346
RightForeArm  -8.03992 0.253446 9.31892
RightHand  -2.18207 5.19818 -23.9361
LeftUpLeg  -37.4704 20.3983 -12.0224
LeftLeg  21.3655 -1.45466 -0.274791
LeftFoot  2.68203 -1.26244 10.1036
LeftToes  1.06246e-005 4.65856e-005 -8.18501e-006
436
root  -37.4989 39.5784 -26.9888 -151.065 -87.8236 161.59
RightUpLeg  -32.935 -15.1512 -2.89136
RightLeg  11.7439 -5.63663 2.28045
RightFoot  9.48487 -0.0980315 0.902331
RightToes  0.00048216 0.542163 -0.142577
Spine  56.052 -3.34146 5.53663
Spine1  10.8097 1.48125 -5.68798
HEad  -25.0691 3.05415 -12.6137
LeftShoulder1  11.6218 -22.6513 -38.1684
LeftArm  -14.4881 -32.8216 -27.5688
LeftForeArm  18.7689 -0.0355607 -6.0077
LeftHand  -0.25398 0.0180481 5.50724
RightShoulder  7.2088 16.0693 30.8336
RightArm  -7.83817 25.8612 23.3578
RightForeArm  -7.75999 2.95367 9.83229
RightHand  -1.55581 3.11542 -21.2942
LeftUpLeg  -34.4681 21.7567 -11.5373
LeftLeg  18.9997 -1.63603 -0.398737
LeftFoot  3.67702 -1.41156 10.5055
LeftToes  1.06246e-005 4.65856e-005 -8.18501e-006
437
root  -37.193 39.7417 -26.7084 -171.326 -87.0239 179.923
RightUpLeg  -29.7004 -15.3143 -3.2333
RightLeg  10.6955 -9.80426 2.12161
RightFoot  7.03261 -0.338518 2.37716
RightToes  0.00048216 0.542163 -0.142577
Spine  54.4463 -3.24575 5.15269
Spine1  10.583 1.37757 -5.99292
HEad  -23.3106 4.9943 -13.449
LeftShoulder1  11.5353 -21.3894 -40.0123
LeftArm  -12.8138 -23.9913 -26.5979
LeftForeArm  18.5533 -1.37376 -6.30091
LeftHand  -0.25398 0.0180481 5.50724
RightShoulder  7.48435 15.6377 33.1186
RightArm  -4.94124 19.1093 24.6013
RightForeArm  -6.48925 5.48844 10.1886
RightHand  -1.14932 1.64493 -19.0675
LeftUpLeg  -31.4107 21.803 -9.69702
LeftLeg  16.9154 -0.190354 -0.879359
LeftFoot  4.60352 -1.58919 11.108
LeftToes  1.06246e-005 4.65856e-005 -8.18501e-006
438
root  -36.8715 39.8821 -26.4871 174.923 -85.9558 -168.353
RightUpLeg  -27.7142 -19.3734 -0.932956
RightLeg  13.0408 -9.7106 0.452586
RightFoot  4.6772 -0.319298 2.4885
RightToes  0.00048216 0.542163 -0.142577
Spine  52.3496 -2.90074 4.78247
Spine1  11.4194 1.44982 -5.82049
HEad  -22.1007 6.71501 -14.3623
LeftShoulder1  11.6926 -20.4523 -42.3479
LeftArm  -11.4798 -16.1577 -24.5071
LeftForeArm  18.2668 -2.3957 -6.53115
LeftHand  -0.25398 0.0180481 5.50724
RightShoulder  7.59429 15.232 34.547
RightArm  -2.36959 13.248 25.4465
RightForeArm  -6.12439 7.83315 10.1947
RightHand  -1.06321 1.28749 -18.5389
LeftUpLeg  -27.9333 19.643 -6.27468
LeftLeg  15.0405 3.78056 -1.70926
LeftFoot  5.47201 -1.76159 11.6511
LeftToes  1.06246e-005 4.65856e-005 -8.18501e-006
439
root  -36.5355 39.9967 -26.3281 167.04 -84.7721 -162.5
RightUpLeg  -26.2161 -23.0947 1.34877
RightLeg  18.3008 -6.79398 -2.51059
RightFoot  2.77455 -0.258323 2.24062
RightToes  0.00048216 0.542163 -0.142577
Spine  50.4943 -2.6008 4.44213
Spine1  11.8348 1.51445 -5.83528
HEad  -20.7225 8.49161 -14.88
LeftShoulder1  11.8019 -19.6101 -44.437
LeftArm  -10.2885 -8.50141 -22.1411
LeftForeArm  17.7542 -3.44352 -6.63935
LeftHand  -0.25398 0.0180481 5.50724
RightShoulder  7.60815 14.7504 35.6779
RightArm  0.477644 7.70849 26.4454
RightForeArm  -7.62641 10.4211 9.7845
RightHand  -1.23335 1.85354 -19.7984
LeftUpLeg  -24.6384 16.9221 -2.99518
LeftLeg  13.2519 8.12904 -2.47962
LeftFoot  6.30211 -1.86149 11.7042
LeftToes  1.06246e-005 4.65856e-005 -8.18501e-006
440
root  -36.1901 40.067 -26.2412 164.707 -83.7956 -161.873
RightUpLeg  -23.4703 -19.0654 -0.598787
RightLeg  25.1414 -8.94888 -4.82019
RightFoot  0.790926 -0.220569 2.12377
RightToes  0.00048216 0.542163 -0.142577
Spine  48.4864 -2.28654 3.88057
Spine1  11.9473 1.42982 -5.85482
HEad  -19.1858 10.3318 -15.0729
LeftShoulder1  11.7089 -18.8065 -45.7389
LeftArm  -9.39827 -0.931454 -20.2588
LeftForeArm  17.0288 -4.80458 -6.58175
LeftHand  -0.25398 0.0180481 5.50724
RightShoulder  7.52444 14.2325 36.4106
RightArm  3.02485 2.35415 27.8343
RightForeArm  -10.2736 13.3348 8.91502
RightHand  -1.46364 2.65748 -21.1812
LeftUpLeg  -22.0159 14.6281 -0.730908
LeftLeg  11.5634 11.6038 -3.21093
LeftFoot  7.04665 -1.87079 11.2536
LeftToes  1.06246e-005 4.65856e-005 -8.18501e-006
